{
  "accessors": [
    {
      "bufferView": 1,
      "componentType": 5126,
      "count": 1058,
      "max": [
        1.0064300298690796,
        1.0465799570083618,
        1.4254599809646606
      ],
      "min": [
        -1.0058599710464478,
        -0.36111000180244446,
        -1.0730199813842773
      ],
      "type": "VEC3"
    },
    {
      "bufferView": 1,
      "byteOffset": 12696,
      "componentType": 5126,
      "count": 1058,
      "max": [
        1.0,
        1.0,
        1.0
      ],
      "min": [
        -1.0,
        -1.0,
        -1.0
      ],
      "type": "VEC3"
    },
    {
      "bufferView": 0,
      "componentType": 5125,
      "count": 2253,
      "type": "SCALAR"
    },
    {
      "bufferView": 1,
      "byteOffset": 25392,
      "componentType": 5126,
      "count": 5732,
      "max": [
        0.9209100008010864,
        1.0118299722671509,
        1.2586899995803833
      ],
      "min": [
        -0.9209399819374084,
        -0.35141998529434204,
        -0.37553998827934265
      ],
      "type": "VEC3"
    },
    {
      "bufferView": 1,
      "byteOffset": 94176,
      "componentType": 5126,
      "count": 5732,
      "max": [
        1.0,
        1.0,
        1.0
      ],
      "min": [
        -1.0,
        -1.0,
        -1.0
      ],
      "type": "VEC3"
    },
    {
      "bufferView": 0,
      "byteOffset": 9012,
      "componentType": 5125,
      "count": 10551,
      "type": "SCALAR"
    },
    {
      "bufferView": 1,
      "byteOffset": 162960,
      "componentType": 5126,
      "count": 2852,
      "max": [
        0.9608100056648254,
        0.9291800260543823,
        1.4796600341796875
      ],
      "min": [
        -0.9610900282859802,
        -0.10997000336647034,
        0.06362999975681305
      ],
      "type": "VEC3"
    },
    {
      "bufferView": 1,
      "byteOffset": 197184,
      "componentType": 5126,
      "count": 2852,
      "max": [
        1.0,
        1.0,
        1.0
      ],
      "min": [
        -1.0,
        -0.9994872808456421,
        -1.0
      ],
      "type": "VEC3"
    },
    {
      "bufferView": 0,
      "byteOffset": 51216,
      "componentType": 5125,
      "count": 4920,
      "type": "SCALAR"
    }
  ],
  "asset": {
    "extras": {
      "author": "VyrianStudios (https://sketchfab.com/vynatic)",
      "license": "CC-BY-4.0 (http://creativecommons.org/licenses/by/4.0/)",
      "source": "https://sketchfab.com/3d-models/musical-keyboard-ae3dee84c9e54f8e88e90df0b45eda5c",
      "title": "Musical Keyboard"
    },
    "generator": "Sketchfab-12.68.0",
    "version": "2.0"
  },
  "bufferViews": [
    {
      "buffer": 0,
      "byteLength": 70896,
      "name": "floatBufferViews",
      "target": 34963
    },
    {
      "buffer": 0,
      "byteLength": 231408,
      "byteOffset": 70896,
      "byteStride": 12,
      "name": "floatBufferViews",
      "target": 34962
    }
  ],
  "buffers": [
    {
      "byteLength": 302304,
      "uri": "scene.bin"
    }
  ],
  "materials": [
    {
      "doubleSided": true,
      "name": "Grey",
      "pbrMetallicRoughness": {
        "baseColorFactor": [
          0.08001147210597992,
          0.08001147210597992,
          0.08001147210597992,
          1.0
        ],
        "metallicFactor": 0.0,
        "roughnessFactor": 0.6
      }
    },
    {
      "doubleSided": true,
      "name": "White",
      "pbrMetallicRoughness": {
        "metallicFactor": 0.0,
        "roughnessFactor": 0.6
      }
    },
    {
      "doubleSided": true,
      "name": "Black",
      "pbrMetallicRoughness": {
        "baseColorFactor": [
          0.03740977495908737,
          0.03740977495908737,
          0.03740977495908737,
          1.0
        ],
        "metallicFactor": 0.0,
        "roughnessFactor": 0.6
      }
    }
  ],
  "meshes": [
    {
      "name": "Cube_0",
      "primitives": [
        {
          "attributes": {
            "NORMAL": 1,
            "POSITION": 0
          },
          "indices": 2,
          "material": 0,
          "mode": 4
        }
      ]
    },
    {
      "name": "Cube_1",
      "primitives": [
        {
          "attributes": {
            "NORMAL": 4,
            "POSITION": 3
          },
          "indices": 5,
          "material": 1,
          "mode": 4
        }
      ]
    },
    {
      "name": "Cube_2",
      "primitives": [
        {
          "attributes": {
            "NORMAL": 7,
            "POSITION": 6
          },
          "indices": 8,
          "material": 2,
          "mode": 4
        }
      ]
    }
  ],
  "nodes": [
    {
      "children": [
        1
      ],
      "matrix": [
        1.0,
        0.0,
        0.0,
        0.0,
        0.0,
        2.220446049250313e-16,
        -1.0,
        0.0,
        0.0,
        1.0,
        2.220446049250313e-16,
        0.0,
        0.0,
        0.0,
        0.0,
        1.0
      ],
      "name": "Sketchfab_model"
    },
    {
      "children": [
        2
      ],
      "name": "Root"
    },
    {
      "children": [
        3,
        4,
        5
      ],
      "matrix": [
        2.5252,
        0.0,
        0.0,
        0.0,
        0.0,
        0.7679200000000002,
        0.0,
        0.0,
        0.0,
        0.0,
        0.11964000000000002,
        0.0,
        -0.0,
        -0.49061000000000005,
        0.14673000000000003,
        1.0
      ],
      "name": "Cube"
    },
    {
      "mesh": 0,
      "name": "Cube_0"
    },
    {
      "mesh": 1,
      "name": "Cube_1"
    },
    {
      "mesh": 2,
      "name": "Cube_2"
    }
  ],
  "scene": 0,
  "scenes": [
    {
      "name": "Sketchfab_Scene",
      "nodes": [
        0
      ]
    }
  ]
}
